<?xml version="1.0" encoding="UTF-8"?>
<svg id="Layer_1" data-name="Layer 1" xmlns="http://www.w3.org/2000/svg" viewBox="0 0 841.89 1190.55">
  <defs>
    <style>
      .cls-1 {
        fill: #fff;
      }
    </style>
  </defs>
  <path class="cls-1" d="M3337.88-3323.76V3306.3H-1353.06V-3323.76H3337.88ZM369.22,308.61v285.22H84.06c-1.62,0-24.23,16.62-26.22,19.11-13.13,16.37-5.42,54.8,11.12,67.78h300.27v289c0,1.89,20.83,28.37,22.88,30.01,17.08,13.69,67.77-.96,67.77-14.9v-298.45l5.67-5.67h302.15c14.21-12.64,18.96-57.96,8.35-70.72-.91-1.1-22.03-16.17-23.46-16.17h-292.71v-289c0-1.68-15.59-27.27-17.73-28.55-23.87-14.21-67.47,5.25-72.91,32.33Z"/>
  <path d="M369.22,308.61c5.44-27.08,49.04-46.53,72.91-32.33,2.14,1.28,17.73,26.87,17.73,28.55v289h292.71c1.42,0,22.55,15.07,23.46,16.17,10.61,12.76,5.86,58.09-8.35,70.72h-302.15l-5.67,5.67v298.45c0,13.94-50.68,28.59-67.77,14.9-2.05-1.64-22.88-28.12-22.88-30.01v-289H68.95c-16.53-12.98-24.24-51.41-11.12-67.78,1.99-2.48,24.6-19.11,26.22-19.11h285.16v-285.22Z"/>
</svg>