<?xml version="1.0" encoding="UTF-8"?>
<svg id="Layer_1" data-name="Layer 1" xmlns="http://www.w3.org/2000/svg" viewBox="0 0 841.89 1190.55">
  <defs>
    <style>
      .cls-1 {
        fill: #fff;
      }
    </style>
  </defs>
  <path class="cls-1" d="M2165.64-1270.78V3355.14H-1107.32V-1270.78h3272.96ZM294.63,595.4c14.8-23.02,145.06-151.15,145.15-164.68.16-22.6-27.37-32.48-44.9-21.03-55.23,57.79-117.37,112.61-170.13,172.49-17.72,20.12-38.8,37.02-18.47,63.36,45.67,59.18,123.28,116.8,172.74,175.15,20.76,37.08,77.4,20.46,55.26-23.64l-139.66-146.3h378.16c20.72-18.43,20.72-36.92,0-55.35h-378.16Z"/>
  <path d="M294.63,595.4h378.16c20.72,18.43,20.72,36.92,0,55.35h-378.16l139.66,146.3c22.14,44.1-34.5,60.72-55.26,23.64-49.46-58.35-127.07-115.97-172.74-175.15-20.33-26.34.75-43.24,18.47-63.36,52.76-59.89,114.9-114.71,170.13-172.49,17.53-11.44,45.06-1.57,44.9,21.03-.1,13.53-130.36,141.66-145.15,164.68Z"/>
</svg>