<?xml version="1.0" encoding="UTF-8"?>
<svg id="Layer_1" data-name="Layer 1" xmlns="http://www.w3.org/2000/svg" viewBox="0 0 4148.28 5863.09">
  <defs>
    <style>
      .cls-1 {
        fill: #fff;
      }
    </style>
  </defs>
  <path class="cls-1" d="M4148.28,0v5863.09H0V0h4148.28ZM2055.03,2798.62c-10.33-8.93-8.97-23.84-30.2-31.57-18.73-6.82-92.83-7.65-109.43,2.38-10.89,6.58-19.45,26.68-28.51,31.61-12.67,6.9-40.54,8.47-56.42,13.72-26.9,8.9-55.25,26.58-59.56,57.51-1.71,12.25,3.07,19.07,2.81,29.09-1.23,47.57-119.77,158.93-15.95,189.61,34.52,10.2,42.01-5.8,69.25-15.74,55.68-20.33,102.62-6.89,158.47-4.91,32.04,1.14,79.38-6.91,106.74-3.17,20.77,2.83,37.96,20.5,60.39,23.09,51.51,5.94,83.56-20.72,74.36-74.39-6.15-35.91-52.47-78.88-55.26-111.81-1.62-19.17,9.08-30.29-3.39-53.36-23.73-43.92-92.36-33.98-113.3-52.07Z"/>
  <path d="M2055.03,2798.62c20.94,18.09,89.57,8.15,113.3,52.07,12.47,23.07,1.77,34.18,3.39,53.36,2.79,32.93,49.1,75.9,55.26,111.81,9.2,53.66-22.85,80.33-74.36,74.39-22.43-2.59-39.62-20.26-60.39-23.09-27.36-3.73-74.7,4.31-106.74,3.17-55.86-1.98-102.79-15.42-158.47,4.91-27.24,9.95-34.73,25.94-69.25,15.74-103.82-30.67,14.72-142.03,15.95-189.61.26-10.02-4.52-16.84-2.81-29.09,4.31-30.93,32.66-48.61,59.56-57.51,15.88-5.25,43.75-6.82,56.42-13.72,9.06-4.93,17.63-25.04,28.51-31.61,16.6-10.03,90.7-9.2,109.43-2.38,21.23,7.73,19.87,22.64,30.2,31.57ZM2000.66,3023.41l14.99-203.74c-.75-1.57-6.06-6.73-6.64-6.73h-73.48c-7.99,8.38-5.56,26.72-5.15,38.56,1.6,46.3,9.65,93.91,13.46,140.21.86,10.49-.48,21.23.03,31.71h56.78ZM1886.4,2853.8c-10.22-14.06-57.95,13.69-69.58,21.18,9.29,18.72,52.48,144.54,62.46,147.9,6.07,2.04,14.63-.03,21.2.55-.77-56.74-3.48-113.9-14.08-169.63ZM2044.43,3023.05c34.8,15,51.21-47.29,61.39-73.18,4.67-11.87,24.33-60.79,24.46-69.1.18-11.07-59.63-39.51-69.81-26.35-14.98,19.36-11.81,138.55-16.05,168.63ZM1803.56,2963.29c-7.74-5.71-24.75,28.96-27.25,34.5-7.06,15.62-14.48,31.92-9.43,49.02l56.34-22.07-19.66-61.45ZM2120.88,3026.7c15.91,1.38,50.77,34.7,61.12,12.46,4.43-9.16-28.89-74.14-32.72-75.87-1.36-.61-8.86-1.42-8.35,2.15l-20.05,61.25Z"/>
  <path class="cls-1" d="M2000.66,3023.41h-56.78c-.52-10.48.83-21.22-.03-31.71-3.81-46.29-11.86-93.91-13.46-140.21-.41-11.84-2.84-30.17,5.15-38.56h73.48c.57,0,5.89,5.16,6.64,6.73l-14.99,203.74Z"/>
  <path class="cls-1" d="M2044.43,3023.05c4.24-30.08,1.07-149.27,16.05-168.63,10.18-13.16,69.98,15.27,69.81,26.35-.13,8.31-19.8,57.23-24.46,69.1-10.18,25.9-26.59,88.18-61.39,73.18Z"/>
  <path class="cls-1" d="M1886.4,2853.8c10.6,55.73,13.31,112.9,14.08,169.63-6.57-.58-15.13,1.49-21.2-.55-9.98-3.36-53.17-129.18-62.46-147.9,11.63-7.49,59.36-35.24,69.58-21.18Z"/>
  <path class="cls-1" d="M2120.88,3026.7l20.05-61.25c-.51-3.57,6.99-2.77,8.35-2.15,3.83,1.73,37.15,66.71,32.72,75.87-10.34,22.23-45.21-11.08-61.12-12.46Z"/>
  <path class="cls-1" d="M1803.56,2963.29l19.66,61.45-56.34,22.07c-5.05-17.1,2.38-33.4,9.43-49.02,2.5-5.54,19.51-40.22,27.25-34.5Z"/>
</svg>