<?xml version="1.0" encoding="UTF-8"?>
<svg id="Layer_1" data-name="Layer 1" xmlns="http://www.w3.org/2000/svg" viewBox="0 0 2936.5 4150.38">
  <defs>
    <style>
      .cls-1 {
        fill: #fff;
      }
    </style>
  </defs>
  <path class="cls-1" d="M2936.5,0v4150.38H0V0h2936.5ZM1670.76,2319.13c140.41-140.51,97.81-378.71-81.08-462.35-228.78-106.96-463.98,107.65-393.95,344.38,59.97,202.71,326.47,266.64,475.03,117.97Z"/>
  <path d="M1670.76,2319.13c-148.56,148.67-415.06,84.74-475.03-117.97-70.03-236.73,165.17-451.34,393.95-344.38,178.89,83.64,221.49,321.84,81.08,462.35ZM1441.76,1885.51c-143.6,13.82-236.13,168.67-191.7,303.87,61.64,187.57,323.44,211.12,419.57,39.93,92.59-164.88-41.62-361.73-227.87-343.8Z"/>
  <path class="cls-1" d="M1441.76,1885.51c186.25-17.93,320.46,178.92,227.87,343.8-96.13,171.19-357.93,147.64-419.57-39.93-44.43-135.2,48.1-290.05,191.7-303.87ZM1569.23,2015.4c-3.5.81-6.3,2.91-8.81,5.36l-125.33,125.51-4.72.17c-19.36-10.55-41.66-54.48-62.72-58.1-28.87-4.96-45.12,14.85-32.27,41.72,7.54,15.76,54.97,62.92,70.27,73.97,12.15,8.78,22.97,15.85,38.92,10.65l158.15-158.7c10.52-24.69-7.17-46.63-33.49-40.58Z"/>
  <path d="M1569.23,2015.4c26.32-6.06,44.02,15.89,33.49,40.58l-158.15,158.7c-15.95,5.2-26.77-1.87-38.92-10.65-15.3-11.05-62.73-58.21-70.27-73.97-12.85-26.87,3.4-46.68,32.27-41.72,21.06,3.62,43.36,47.55,62.72,58.1l4.72-.17,125.33-125.51c2.51-2.44,5.31-4.55,8.81-5.36Z"/>
</svg>