<?xml version="1.0" encoding="UTF-8"?>
<svg id="Layer_1" data-name="Layer 1" xmlns="http://www.w3.org/2000/svg" viewBox="0 0 3508 4961">
  <defs>
    <style>
      .cls-1 {
        fill: #fff;
      }
    </style>
  </defs>
  <path class="cls-1" d="M7603.85-5749.4v16262.44H-3902.25V-5749.4H7603.85ZM2100.89,2321.63c6.52-98.2-30.26-231.51-121.47-281.59-93.81-51.5-374.41-49.12-482.91-31.14-153.35,25.42-218.39,167.47-201.52,312.72-92.14.19-391.16-59.85-389.47,88.18.89,78.02,94.28,104.51,157.88,97.05l7.04,1063.21c29.91,61.65,102.81,142.33,173.35,150.93,75.4,9.19,171.66-4.22,250.72-.59,168.52,7.74,558.11,56.92,698.13-14.45,52.11-26.56,111.15-96.01,124.1-153.86l6.47-1045.25c83.51,10.89,197.08-44.95,147.04-142.4-50.11-97.58-277.66-33.2-369.37-42.83Z"/>
  <path d="M2100.89,2321.63c91.71,9.62,319.26-54.75,369.37,42.83,50.04,97.46-63.53,153.29-147.04,142.4l-6.47,1045.25c-12.95,57.85-72,127.29-124.1,153.86-140.01,71.38-529.6,22.2-698.13,14.45-79.06-3.63-175.32,9.78-250.72.59-70.54-8.6-143.43-89.28-173.35-150.93l-7.04-1063.21c-63.6,7.46-156.99-19.03-157.88-97.05-1.69-148.04,297.33-88,389.47-88.18-16.87-145.25,48.17-287.31,201.52-312.72,108.5-17.98,389.1-20.37,482.91,31.14,91.21,50.07,127.99,183.39,121.47,281.59ZM1915.65,2321.59c12.55-155.55-44.75-126.42-162.01-129.79-77.7-12.81-164.83,2.75-245.4,4.9-44.52,27.56-24.14,80.86-28.01,124.88h435.42ZM2137.99,2497.65h-898.62v1014.67c0,34.9,126,49.49,152.48,51.35,126.77,8.89,254.03-17.9,379.83-19.3,121.43-1.35,251.03,31.96,366.31-8.88v-1037.83Z"/>
  <path class="cls-1" d="M2137.99,2497.65v1037.83c-115.28,40.83-244.88,7.53-366.31,8.88-125.8,1.4-253.06,28.19-379.83,19.3-26.48-1.86-152.48-16.45-152.48-51.35v-1014.67h898.62ZM1474.1,3319.23c49.91,52.13,125.82,35.47,152.47-31.21,32.3-80.82,29.39-415.85,9.02-505.61-27.13-119.58-162.83-116.04-190.23,9.31-21.27,97.27-21.4,379.39,1.74,475.7,3.44,14.31,16.89,41.24,27,51.8ZM1846.2,2697.01c-35.95.11-64.76,22.44-80.62,53.62-38.91,76.48-32.49,408.22-14.51,500.05,22.24,113.58,152.62,133.11,187.89,25.49,27.76-84.69,24.5-429.72-4.21-515-14.16-42.08-43.12-64.3-88.55-64.15Z"/>
  <path class="cls-1" d="M1915.65,2321.59h-435.42c3.87-44.02-16.51-97.32,28.01-124.88,80.58-2.15,167.7-17.71,245.4-4.9,117.26,3.37,174.56-25.76,162.01,129.79Z"/>
  <path d="M1474.1,3319.23c-10.11-10.56-23.56-37.49-27-51.8-23.15-96.32-23.01-378.43-1.74-475.7,27.41-125.36,163.1-128.89,190.23-9.31,20.37,89.77,23.28,424.79-9.02,505.61-26.65,66.67-102.56,83.33-152.47,31.21Z"/>
  <path d="M1846.2,2697.01c45.43-.14,74.38,22.08,88.55,64.15,28.71,85.28,31.97,430.31,4.21,515-35.27,107.62-165.65,88.08-187.89-25.49-17.98-91.83-24.4-423.57,14.51-500.05,15.86-31.17,44.67-53.5,80.62-53.62Z"/>
</svg>