<?xml version="1.0" encoding="UTF-8"?>
<svg id="Layer_1" data-name="Layer 1" xmlns="http://www.w3.org/2000/svg" viewBox="0 0 927.69 907.07">
  <defs>
    <style>
      .cls-1 {
        fill: #fff;
      }
    </style>
  </defs>
  <path class="cls-1" d="M927.69,0v907.07H0V0h927.69ZM523.75,599.01v135.2c0,2.1,11.81,26.57,14.27,30.23,9.9,14.75,28.16,26.95,45.94,29.37,32.38,4.41,156.32,5.01,187.77.09,29.59-4.63,54.24-37.52,56.83-66.4,10.14-113.25-7.94-241.36-.05-356.21-3.6-17.49-12.09-34.45-25.86-46.02-93.52-60.94-180.99-149.5-274.4-208.26-29.83-18.76-56.11-21.71-87.75-3.44-83.94,73.09-192.82,134.57-274.37,208.29-22.41,20.25-29.95,36.1-32.57,66.7-8.99,105.04,6.55,222.16,0,328.49,2.84,31.37,20.12,64.88,52.25,74.4,20.96,6.22,169.23,5.99,195.57,2.36,25.62-3.53,60.21-37.32,60.21-63.02v-131.78h82.16Z"/>
  <path d="M523.75,599.01h-82.16v131.78c0,25.7-34.59,59.49-60.21,63.02-26.34,3.63-174.61,3.85-195.57-2.36-32.12-9.53-49.4-43.03-52.25-74.4,6.55-106.33-8.99-223.45,0-328.49,2.62-30.6,10.16-46.44,32.57-66.7,81.55-73.71,190.43-135.19,274.37-208.29,31.64-18.27,57.93-15.32,87.75,3.44,93.41,58.76,180.87,147.32,274.4,208.26,13.77,11.57,22.26,28.53,25.86,46.02-7.89,114.85,10.19,242.96.05,356.21-2.59,28.88-27.24,61.77-56.83,66.4-31.45,4.92-155.39,4.32-187.77-.09-17.78-2.42-36.04-14.62-45.94-29.37-2.45-3.66-14.27-28.13-14.27-30.23v-135.2ZM756.53,379.94l-275.01-204.78-272.7,206.5v340.58h155.76l5.13-5.13v-136.92c0-14.14,29.67-43.39,43.48-48.94,26.83-10.78,106.7-11.34,133.89-1.76,16.83,5.93,48.57,36.3,48.57,54.12v138.63h160.89v-342.29Z"/>
  <path class="cls-1" d="M756.53,379.94v342.29h-160.89v-138.63c0-17.83-31.74-48.2-48.57-54.12-27.19-9.58-107.06-9.03-133.89,1.76-13.81,5.55-43.48,34.81-43.48,48.94v136.92l-5.13,5.13h-155.76v-340.58l272.7-206.5,275.01,204.78Z"/>
</svg>