<?xml version="1.0" encoding="UTF-8"?>
<svg id="Layer_1" data-name="Layer 1" xmlns="http://www.w3.org/2000/svg" viewBox="0 0 841.89 1190.55">
  <defs>
    <style>
      .cls-1 {
        fill: #fff;
      }
    </style>
  </defs>
  <path class="cls-1" d="M822.12,251.78v769.39H39.11V251.78h783ZM411.09,323.76c-21.53,3.63-127.26,70.5-141.39,89.1-33.35,43.89-8.67,118.75-18.75,171.05-59.95,48.38-147.51,57.27-154.34,147.33-3.29,43.34-6.06,122.36,24.43,155.48,15.33,16.66,119.76,78.26,141.61,82.09,61.2,10.72,117.61-53.25,171.35-75.24,52.43,24.52,110.23,86.5,171.35,75.22,17.86-3.3,121.34-64.18,135.55-77.99,34.37-33.44,31.09-120.47,27.12-166.32-7.07-81.52-100.09-97.06-154.33-140.56-12.58-75.09,27.09-145.12-44.73-195.91-40.53-28.67-108.02-72.63-157.86-64.24Z"/>
  <path d="M411.09,323.76c49.84-8.39,117.32,35.57,157.86,64.24,71.83,50.8,32.15,120.82,44.73,195.91,54.24,43.5,147.26,59.04,154.33,140.56,3.97,45.85,7.25,132.88-27.12,166.32-14.2,13.82-117.69,74.7-135.55,77.99-61.12,11.28-118.92-50.7-171.35-75.22-53.74,21.99-110.15,85.96-171.35,75.24-21.85-3.83-126.28-65.43-141.61-82.09-30.48-33.12-27.71-112.14-24.43-155.48,6.83-90.06,94.39-98.94,154.34-147.33,10.09-52.3-14.6-127.16,18.75-171.05,14.13-18.6,119.86-85.47,141.39-89.1ZM530.6,434.76c1.38-6.19-1.89-6.63-5.64-9.56-10.35-8.07-63.11-40.07-74.34-44.29-40.56-15.23-79.16,34.99-116.61,47.17l96.84,60.95,99.75-54.27ZM405.19,536.49l-98.3-57.62v108.46l98.3,54.23v-105.07ZM557.73,482.26l-98.3,54.23v105.07l98.3-54.23v-105.07ZM378.07,689.06l-100.02-56.48c-27.24,18.94-65.13,34.01-90.92,53.6-2.9,2.2-6.72,3.12-5.69,7.88l96.66,58.15,97.86-56.19,2.1-6.95ZM486.55,689.05l99.99,63.25,96.59-58.25c1.13-4.7-2.78-5.8-5.61-7.9-26.3-19.53-63.38-34.63-90.96-53.57l-100.02,56.47ZM252.66,902.54v-99.99l-101.69-62.7v89.82c0,4.88,9.13,19.26,13.77,23.52,9.29,8.52,63.14,40.45,75.89,46.13,4.05,1.8,6.7,4.52,12.03,3.23ZM405.19,848.31v-108.46l-98.3,57.62v105.07l98.3-54.23ZM611.96,902.54c5.33,1.3,7.98-1.42,12.03-3.23,14.35-6.39,64.5-36.36,75.83-46.19,4.81-4.18,13.83-14.19,13.83-20.06v-93.21l-101.69,62.7v99.99ZM557.73,797.47l-98.3-54.23v105.07l98.3,54.23v-105.07Z"/>
  <path class="cls-1" d="M378.07,689.06l-2.1,6.95-97.86,56.19-96.66-58.15c-1.03-4.75,2.79-5.68,5.69-7.88,25.8-19.58,63.69-34.65,90.92-53.6l100.02,56.48Z"/>
  <path class="cls-1" d="M486.55,689.05l100.02-56.47c27.57,18.93,64.65,34.03,90.96,53.57,2.83,2.1,6.74,3.2,5.61,7.9l-96.59,58.25-99.99-63.25Z"/>
  <path class="cls-1" d="M530.6,434.76l-99.75,54.27-96.84-60.95c37.45-12.18,76.05-62.4,116.61-47.17,11.24,4.22,64,36.22,74.34,44.29,3.75,2.93,7.02,3.37,5.64,9.56Z"/>
  <path class="cls-1" d="M611.96,902.54v-99.99l101.69-62.7v93.21c0,5.88-9.02,15.89-13.83,20.06-11.33,9.83-61.48,39.8-75.83,46.19-4.05,1.8-6.7,4.52-12.03,3.23Z"/>
  <path class="cls-1" d="M252.66,902.54c-5.33,1.3-7.98-1.42-12.03-3.23-12.75-5.68-66.6-37.6-75.89-46.13-4.64-4.25-13.77-18.63-13.77-23.52v-89.82l101.69,62.7v99.99Z"/>
  <polygon class="cls-1" points="405.19 536.49 405.19 641.56 306.89 587.33 306.89 478.87 405.19 536.49"/>
  <polygon class="cls-1" points="405.19 848.31 306.89 902.54 306.89 797.47 405.19 739.85 405.19 848.31"/>
  <polygon class="cls-1" points="557.73 482.26 557.73 587.33 459.43 641.56 459.43 536.49 557.73 482.26"/>
  <polygon class="cls-1" points="557.73 797.47 557.73 902.54 459.43 848.31 459.43 743.24 557.73 797.47"/>
</svg>