<?xml version="1.0" encoding="UTF-8"?>
<svg id="Layer_1" data-name="Layer 1" xmlns="http://www.w3.org/2000/svg" viewBox="0 0 1667.84 1906.47">
  <defs>
    <style>
      .cls-1 {
        fill: #fff;
      }
    </style>
  </defs>
  <path d="M640.58,8.37c195.46-10.11,475.56-18.99,663.59,23.53,552.13,124.87,297.02,983.1,348,1384.35-11.15,58.62-106.3,59.65-148.4,79.26-82.77,38.6-95.57,176.89-24.77,233.03,62.54,49.74,258.62,32.61,133.96,173.17l-1341.42,4.75c-79.47-8.05-152.12-54.7-195.05-121.78C-61.4,1570.44,26.73,966.92,39.32,703.96c8.05-167.39-31.17-345.73,57.17-497.43C197.22,33.35,460.18,17.66,640.78,8.38h-.21ZM1513.67,1332.25c10.32-47.47-10.94-100.93-10.73-143.66.83-215.07,24.15-437.16,11.15-653.89-9.29-157.07-31.79-313.32-206.2-358.11-158.31-40.66-424.16-25.18-590.73-22.29-166.57,2.89-431.18-24.97-517.46,155.84-86.28,180.81-27.25,569.06-22.09,769.27,2.48,93.71,3.92,190.51-10.32,282.57,26.21,14.04,74.72-29.72,84.01-29.72h1262.37ZM1335.54,1470.96H261.41c-10.94,0-71,56.97-78.43,70.18-20.85,37.15-24.15,113.11-4.54,151.5,6.81,13.21,75.96,75.54,82.97,75.54h1074.13c-54.9-90.2-54.7-207.23,0-297.02v-.21Z"/>
  <path class="cls-1" d="M1513.67,1332.25H251.51c-9.49,0-57.79,43.76-84.01,29.72,14.04-92.06,12.59-188.86,10.32-282.57-5.16-200.21-61.1-595.06,22.09-769.27,83.18-174.21,351.09-152.95,517.46-155.84,166.36-2.89,432.21-18.37,590.73,22.29,174.41,44.79,196.91,200.83,206.2,358.11,13,216.72-10.32,438.82-11.15,653.89,0,42.73,20.85,96.18,10.73,143.66h-.21ZM1178.67,898.18c244.59-71.62,204.75-470.19-46.44-486.7-31.79-2.06-65.02,10.73-86.69,7.84-35.29-4.54-94.95-68.94-143.04-84.83-59.03-19.4-107.54-20.43-162.44,11.15-30.34,17.54-64.81,65.43-95.15,73.27-62.75,15.89-129.83-14.86-197.53,20.23-165.74,85.86-153.77,425.4,45.2,468.74,10.94,98.25,2.48,196.91,106.3,245.21,95.15,44.17,388.66,35.71,485.88-7.02,97.22-42.73,88.75-154.6,93.71-247.89h.21Z"/>
  <path class="cls-1" d="M1335.54,1470.96c-54.7,89.79-54.9,206.82,0,297.02H261.41c-6.81,0-76.16-62.33-82.97-75.54-19.61-38.39-16.31-114.35,4.54-151.5,7.43-13.21,67.29-70.18,78.43-70.18h1074.13v.21Z"/>
  <path d="M1178.67,898.18c-5.16,93.29,5.99,203.93-93.71,247.89-99.69,43.96-390.72,51.19-485.88,7.02-103.82-48.3-95.36-146.96-106.3-245.21-198.97-43.35-210.95-382.88-45.2-468.74,67.7-35.09,134.78-4.33,197.53-20.23,30.13-7.64,64.81-55.73,95.15-73.27,54.9-31.79,103.61-30.75,162.44-11.15,48.09,15.89,107.74,80.29,143.04,84.83,21.67,2.68,54.7-9.91,86.69-7.84,251.19,16.51,291.03,415.29,46.44,486.7h-.21ZM1028.62,1010.47v-188.03c0-2.89,34.06-43.76,36.53-45.2,38.8-22.5,80.29,5.37,121.99-53.87,54.7-77.81-12.18-186.38-102.38-163.89-15.48,3.92-15.69,109.6-103,72.03-43.76-18.78-25.59-49.12-36.95-81.74-24.77-71.42-91.23-113.52-162.85-73.07-42.93,24.15-49.12,93.09-97.22,101.55-29.52,5.16-56.14-15.48-86.69-18.37-105.89-9.91-144.07,65.02-121.57,161.41,16.1,68.94,141.59,45.2,168.63,108.57,27.04,63.37-23.53,130.45,6.81,191.13,14.04,9.91,306.51,9.08,342.63,4.75,14.45-1.65,25.39-1.24,34.06-15.27h0Z"/>
  <path class="cls-1" d="M1028.62,1010.47c-8.67,14.04-19.81,13.62-34.06,15.27-36.12,4.33-328.6,4.95-342.63-4.75-30.34-60.89,20.23-127.56-6.81-191.13-27.04-63.57-152.53-39.63-168.63-108.57-22.29-96.39,15.69-171.32,121.57-161.41,30.75,2.89,57.17,23.53,86.69,18.37,48.09-8.46,54.28-77.4,97.22-101.55,71.42-40.46,137.88,1.86,162.85,73.07,11.35,32.82-6.81,62.95,36.95,81.74,87.1,37.36,87.31-68.11,103-72.03,90.2-22.5,157.07,86.07,102.38,163.89-41.69,59.24-83.18,31.37-121.99,53.87-2.48,1.44-36.53,42.31-36.53,45.2v188.03h0Z"/>
</svg>